<?xml version="1.0" standalone="no"?>
<!DOCTYPE svg PUBLIC "-//W3C//DTD SVG 20010904//EN"
 "http://www.w3.org/TR/2001/REC-SVG-20010904/DTD/svg10.dtd">
<svg version="1.0" xmlns="http://www.w3.org/2000/svg"
 width="309.000000pt" height="309.000000pt" viewBox="0 0 309.000000 309.000000"
 preserveAspectRatio="xMidYMid meet">
<metadata>
Created by potrace 1.14, written by Peter Selinger 2001-2017
</metadata>
<g transform="translate(0.000000,309.000000) scale(0.100000,-0.100000)"
fill="#000000" stroke="none">
<path d="M0 1545 l0 -1545 1545 0 1545 0 0 1545 0 1545 -1545 0 -1545 0 0
-1545z m1192 1057 c191 -139 353 -252 360 -252 7 1 215 148 463 329 442 322
450 327 475 313 l26 -15 -173 -531 c-95 -292 -173 -536 -173 -543 0 -6 197
-154 438 -329 240 -174 445 -324 454 -333 11 -11 15 -25 11 -43 l-5 -28 -571
-2 -570 -3 -124 -380 c-68 -209 -146 -450 -173 -536 -50 -155 -50 -156 -80
-156 -30 0 -30 1 -80 156 -27 86 -105 327 -173 536 l-124 380 -570 3 -571 2
-5 28 c-4 18 0 32 11 43 9 9 214 159 455 333 240 174 437 322 437 329 0 7 -78
251 -173 543 l-173 531 25 15 c25 14 30 12 131 -62 58 -42 261 -190 452 -328z"/>
<path d="M670 2904 c0 -8 310 -967 314 -971 1 -1 505 362 514 372 2 1 -169
128 -380 281 -211 153 -398 289 -415 302 -18 13 -33 21 -33 16z"/>
<path d="M2015 2610 c-225 -164 -408 -302 -405 -306 4 -9 503 -374 506 -371 6
6 315 969 313 972 -2 1 -188 -131 -414 -295z"/>
<path d="M1275 2071 c-148 -108 -269 -202 -269 -207 1 -5 48 -150 104 -321
l101 -313 339 0 339 0 104 318 c68 207 101 321 95 329 -10 12 -533 393 -540
393 -1 0 -124 -90 -273 -199z"/>
<path d="M532 1533 l-409 -298 510 -3 c281 -1 512 -1 513 1 2 2 -39 135 -91
295 -52 161 -95 294 -95 297 0 16 -55 -22 -428 -292z"/>
<path d="M2047 1534 c-53 -164 -95 -299 -93 -301 1 -2 232 -2 513 -1 l510 3
-405 295 c-223 162 -411 296 -417 298 -6 2 -51 -121 -108 -294z"/>
<path d="M1233 1163 c2 -5 73 -223 158 -485 85 -263 156 -478 159 -478 3 0 74
215 159 478 85 262 156 480 158 485 2 4 -140 7 -317 7 -177 0 -319 -3 -317 -7z"/>
</g>
</svg>
