<?xml version="1.0" encoding="UTF-8" standalone="no"?>
<!-- Created with Inkscape (http://www.inkscape.org/) -->

<svg
   width="96.620972mm"
   height="107.13351mm"
   viewBox="0 0 96.620972 107.13352"
   version="1.1"
   id="svg5"
   inkscape:version="1.1 (c68e22c387, 2021-05-23)"
   sodipodi:docname="darkMode.svg"
   xmlns:inkscape="http://www.inkscape.org/namespaces/inkscape"
   xmlns:sodipodi="http://sodipodi.sourceforge.net/DTD/sodipodi-0.dtd"
   xmlns="http://www.w3.org/2000/svg"
   xmlns:svg="http://www.w3.org/2000/svg">
  <sodipodi:namedview
     id="namedview7"
     pagecolor="#ffffff"
     bordercolor="#666666"
     borderopacity="1.0"
     inkscape:pageshadow="2"
     inkscape:pageopacity="0.0"
     inkscape:pagecheckerboard="0"
     inkscape:document-units="mm"
     showgrid="false"
     inkscape:zoom="0.69397447"
     inkscape:cx="259.37554"
     inkscape:cy="260.09602"
     inkscape:window-width="1920"
     inkscape:window-height="1001"
     inkscape:window-x="-9"
     inkscape:window-y="-9"
     inkscape:window-maximized="1"
     inkscape:current-layer="layer1"
     inkscape:snap-bbox="true"
     inkscape:snap-bbox-edge-midpoints="true" />
  <defs
     id="defs2" />
  <g
     inkscape:label="Layer 1"
     inkscape:groupmode="layer"
     id="layer1"
     transform="translate(-34.444128,-40.163422)">
    <path
       id="path1033"
       style="fill:#000000;stroke-width:12.6576;stroke-linecap:round;stroke-linejoin:bevel"
       d="M 168.59375,-12.248047 A 202.45702,202.45702 0 0 0 -33.863281,190.20898 202.45702,202.45702 0 0 0 168.59375,392.66602 a 202.45702,202.45702 0 0 0 162.53516,-81.98243 151.30241,151.30241 0 0 1 -6.14844,4.53711 151.30241,151.30241 0 0 1 -9.58008,6.01953 151.30241,151.30241 0 0 1 -10.00391,5.28711 151.30241,151.30241 0 0 1 -10.37109,4.52539 151.30241,151.30241 0 0 1 -10.67969,3.73633 151.30241,151.30241 0 0 1 -10.92968,2.92774 151.30241,151.30241 0 0 1 -11.11719,2.10351 151.30241,151.30241 0 0 1 -11.24414,1.26758 151.30241,151.30241 0 0 1 -11.30664,0.42383 151.30241,151.30241 0 0 1 -11.30664,-0.42383 151.30241,151.30241 0 0 1 -11.24414,-1.26758 151.30241,151.30241 0 0 1 -11.11719,-2.10351 151.30241,151.30241 0 0 1 -10.92774,-2.92774 151.30241,151.30241 0 0 1 -10.67968,-3.73633 151.30241,151.30241 0 0 1 -10.3711,-4.52539 151.30241,151.30241 0 0 1 -10.0039,-5.28711 151.30241,151.30241 0 0 1 -9.58008,-6.01953 151.30241,151.30241 0 0 1 -9.10352,-6.71875 151.30241,151.30241 0 0 1 -8.57812,-7.38086 151.30241,151.30241 0 0 1 -8,-8 151.30241,151.30241 0 0 1 -7.38086,-8.57617 151.30241,151.30241 0 0 1 -6.71875,-9.10547 151.30241,151.30241 0 0 1 -6.01953,-9.58007 151.30241,151.30241 0 0 1 -5.28711,-10.00391 151.30241,151.30241 0 0 1 -4.525393,-10.36914 151.30241,151.30241 0 0 1 -3.736328,-10.67969 151.30241,151.30241 0 0 1 -2.927735,-10.92969 151.30241,151.30241 0 0 1 -2.103515,-11.11718 151.30241,151.30241 0 0 1 -1.267578,-11.24415 151.30241,151.30241 0 0 1 -0.423829,-11.30664 151.30241,151.30241 0 0 1 0.423829,-11.30664 151.30241,151.30241 0 0 1 1.267578,-11.24414 151.30241,151.30241 0 0 1 2.103515,-11.11718 151.30241,151.30241 0 0 1 2.927735,-10.92969 151.30241,151.30241 0 0 1 3.736328,-10.67969 151.30241,151.30241 0 0 1 4.525393,-10.37109 151.30241,151.30241 0 0 1 5.28711,-10.00391 151.30241,151.30241 0 0 1 6.01953,-9.58008 151.30241,151.30241 0 0 1 6.71875,-9.103513 151.30241,151.30241 0 0 1 7.38086,-8.576172 151.30241,151.30241 0 0 1 8,-8 151.30241,151.30241 0 0 1 8.57812,-7.380859 151.30241,151.30241 0 0 1 9.10352,-6.71875 151.30241,151.30241 0 0 1 9.58008,-6.019532 151.30241,151.30241 0 0 1 10.0039,-5.287109 151.30241,151.30241 0 0 1 10.3711,-4.525391 151.30241,151.30241 0 0 1 10.67968,-3.736328 151.30241,151.30241 0 0 1 10.92774,-2.929687 151.30241,151.30241 0 0 1 11.11719,-2.103516 151.30241,151.30241 0 0 1 11.24414,-1.265625 151.30241,151.30241 0 0 1 11.30664,-0.423828 151.30241,151.30241 0 0 1 3.89648,0.05078 151.30241,151.30241 0 0 1 3.89258,0.150391 151.30241,151.30241 0 0 1 3.88867,0.25 151.30241,151.30241 0 0 1 3.88086,0.351562 151.30241,151.30241 0 0 1 3.86914,0.449219 151.30241,151.30241 0 0 1 3.85742,0.550781 151.30241,151.30241 0 0 1 3.8418,0.648438 151.30241,151.30241 0 0 1 3.82227,0.748047 151.30241,151.30241 0 0 1 3.80273,0.845703 151.30241,151.30241 0 0 1 3.78125,0.943359 151.30241,151.30241 0 0 1 3.75391,1.041016 151.30241,151.30241 0 0 1 3.72656,1.136719 151.30241,151.30241 0 0 1 3.69531,1.232422 151.30241,151.30241 0 0 1 3.66406,1.328124 151.30241,151.30241 0 0 1 3.62696,1.419922 151.30241,151.30241 0 0 1 3.58984,1.515625 151.30241,151.30241 0 0 1 3.55078,1.605469 151.30241,151.30241 0 0 1 3.50586,1.697266 151.30241,151.30241 0 0 1 3.46289,1.787109 151.30241,151.30241 0 0 1 3.41406,1.875 151.30241,151.30241 0 0 1 3.36719,1.960938 151.30241,151.30241 0 0 1 3.3125,2.048828 151.30241,151.30241 0 0 1 3.26172,2.132812 151.30241,151.30241 0 0 1 3.20313,2.216797 151.30241,151.30241 0 0 1 3.14648,2.298828 151.30241,151.30241 0 0 1 0.75586,0.582032 202.45702,202.45702 0 0 0 -162.72461,-82.021484 z"
       transform="matrix(0.26458333,0,0,0.26458333,43.403788,43.404051)" />
  </g>
</svg>
